<svg xmlns="http://www.w3.org/2000/svg" viewBox="0 0 512 512" fill="none">
  <defs>
    <linearGradient id="bg" x1="96" y1="64" x2="416" y2="448" gradientUnits="userSpaceOnUse">
      <stop stop-color="#1A1A1A"/>
      <stop offset="1" stop-color="#101010"/>
    </linearGradient>
    <linearGradient id="pill" x1="96" y1="220" x2="416" y2="292" gradientUnits="userSpaceOnUse">
      <stop stop-color="#2B2B2B"/>
      <stop offset="1" stop-color="#1F1F1F"/>
    </linearGradient>
    <linearGradient id="accent" x1="352" y1="232" x2="404" y2="284" gradientUnits="userSpaceOnUse">
      <stop stop-color="#FFB347"/>
      <stop offset="1" stop-color="#F97316"/>
    </linearGradient>
  </defs>
  <rect width="512" height="512" rx="112" fill="url(#bg)"/>
  <rect x="88" y="224" width="336" height="64" rx="32" fill="url(#pill)" stroke="#FFFFFF" stroke-opacity="0.08"/>
  <rect x="96" y="228" width="220" height="8" rx="4" fill="#FFFFFF" fill-opacity="0.06"/>
  <rect x="372" y="236" width="44" height="44" rx="12" fill="url(#accent)"/>
  <path d="M394 258L394 248M394 248L388 254M394 248L400 254" stroke="white" stroke-width="4" stroke-linecap="round" stroke-linejoin="round"/>
  <path d="M148 196L156 184L164 196L156 208Z" fill="#FB923C"/>
  <path d="M188 176L194 168L200 176L194 184Z" fill="#FDBA74" fill-opacity="0.9"/>
  <circle cx="156" cy="190" r="3" fill="#FFEDD5" fill-opacity="0.8"/>
</svg>
